<svg width="48" height="50" viewBox="0 0 48 50" fill="none" xmlns="http://www.w3.org/2000/svg">
    <g filter="url(#filter0_d)">
        <path fill-rule="evenodd" clip-rule="evenodd" d="M35.8223 17.6222C35.207 18.2081 34.2332 18.1841 33.6474 17.5688L32.0563 15.8975C29.713 13.436 25.818 13.3402 23.3566 15.6835L12.676 25.8513L22.8044 26.1004C23.6537 26.1213 24.3253 26.8268 24.3045 27.6761C24.2836 28.5255 23.5781 29.1971 22.7287 29.1762L8.88757 28.8358C8.03821 28.815 7.3666 28.1095 7.38749 27.2601L7.72788 13.419C7.74877 12.5696 8.45424 11.898 9.3036 11.9189C10.153 11.9398 10.8246 12.6452 10.8037 13.4946L10.5546 23.6229L21.2352 13.4551C24.9273 9.94017 30.7698 10.0839 34.2847 13.776L35.8758 15.4473C36.4616 16.0627 36.4377 17.0364 35.8223 17.6222Z" fill="url(#paint0_linear)"/>
    </g>
    <g filter="url(#filter1_d)">
        <path fill-rule="evenodd" clip-rule="evenodd" d="M12.1777 31.9241C12.793 31.3383 13.7668 31.3622 14.3526 31.9776L15.9437 33.6489C18.287 36.1104 22.182 36.2061 24.6434 33.8629L35.324 23.695L25.1956 23.4459C24.3463 23.4251 23.6747 22.7196 23.6955 21.8702C23.7164 21.0209 24.4219 20.3492 25.2713 20.3701L39.1124 20.7105C39.9618 20.7314 40.6334 21.4369 40.6125 22.2862L40.2721 36.1274C40.2512 36.9768 39.5458 37.6484 38.6964 37.6275C37.847 37.6066 37.1754 36.9011 37.1963 36.0518L37.4454 25.9234L26.7648 36.0913C23.0727 39.6062 17.2302 39.4625 13.7153 35.7704L12.1242 34.099C11.5384 33.4837 11.5623 32.5099 12.1777 31.9241Z" fill="url(#paint1_linear)"/>
    </g>
    <defs>
        <filter id="filter0_d" x="3.38696" y="8.91009" width="36.913" height="26.2666" filterUnits="userSpaceOnUse" color-interpolation-filters="sRGB">
            <feFlood flood-opacity="0" result="BackgroundImageFix"/>
            <feColorMatrix in="SourceAlpha" type="matrix" values="0 0 0 0 0 0 0 0 0 0 0 0 0 0 0 0 0 0 127 0"/>
            <feOffset dy="2"/>
            <feGaussianBlur stdDeviation="2"/>
            <feColorMatrix type="matrix" values="0 0 0 0 0.862745 0 0 0 0 0.419608 0 0 0 0 0.898039 0 0 0 0.3 0"/>
            <feBlend mode="normal" in2="BackgroundImageFix" result="effect1_dropShadow"/>
            <feBlend mode="normal" in="SourceGraphic" in2="effect1_dropShadow" result="shape"/>
        </filter>
        <filter id="filter1_d" x="7.69995" y="18.3697" width="36.913" height="26.2666" filterUnits="userSpaceOnUse" color-interpolation-filters="sRGB">
            <feFlood flood-opacity="0" result="BackgroundImageFix"/>
            <feColorMatrix in="SourceAlpha" type="matrix" values="0 0 0 0 0 0 0 0 0 0 0 0 0 0 0 0 0 0 127 0"/>
            <feOffset dy="2"/>
            <feGaussianBlur stdDeviation="2"/>
            <feColorMatrix type="matrix" values="0 0 0 0 0.862745 0 0 0 0 0.419608 0 0 0 0 0.898039 0 0 0 0.3 0"/>
            <feBlend mode="normal" in2="BackgroundImageFix" result="effect1_dropShadow"/>
            <feBlend mode="normal" in="SourceGraphic" in2="effect1_dropShadow" result="shape"/>
        </filter>
        <linearGradient id="paint0_linear" x1="6" y1="28" x2="44" y2="2.5" gradientUnits="userSpaceOnUse">
            <stop stop-color="white"/>
            <stop offset="1" stop-color="white" stop-opacity="0.6"/>
        </linearGradient>
        <linearGradient id="paint1_linear" x1="39.5" y1="21.5" x2="11" y2="40" gradientUnits="userSpaceOnUse">
            <stop stop-color="white"/>
            <stop offset="1" stop-color="white" stop-opacity="0.6"/>
        </linearGradient>
    </defs>
</svg>
